<svg width="40" height="15" viewBox="0 0 40 15" fill="none" xmlns="http://www.w3.org/2000/svg">
<path d="M8.18838 9.832C8.18838 10.3653 8.05504 10.8667 7.78838 11.336C7.53238 11.8053 7.14838 12.2 6.63638 12.52C6.13504 12.84 5.53771 13.032 4.84438 13.096V14.392H3.80438V13.096C2.80171 13 1.99104 12.6853 1.37238 12.152C0.753708 11.6187 0.444375 10.9147 0.444375 10.04H2.39638C2.42838 10.456 2.56171 10.8027 2.79638 11.08C3.03104 11.3467 3.36704 11.5173 3.80438 11.592V8.072C3.08971 7.89067 2.50838 7.70933 2.06038 7.528C1.61238 7.336 1.22838 7.03733 0.908375 6.632C0.599042 6.22667 0.444375 5.672 0.444375 4.968C0.444375 4.08267 0.753708 3.352 1.37238 2.776C1.99104 2.18933 2.80171 1.848 3.80438 1.752V0.455999H4.84438V1.752C5.78304 1.83733 6.53504 2.136 7.10038 2.648C7.67638 3.14933 8.00171 3.84267 8.07638 4.728H6.12438C6.09238 4.39733 5.96438 4.104 5.74038 3.848C5.51638 3.58133 5.21771 3.4 4.84438 3.304V6.76C5.55904 6.93067 6.14038 7.112 6.58838 7.304C7.03638 7.48533 7.41504 7.77867 7.72438 8.184C8.03371 8.57867 8.18838 9.128 8.18838 9.832ZM2.30038 4.872C2.30038 5.30933 2.42838 5.65067 2.68438 5.896C2.95104 6.14133 3.32438 6.33867 3.80438 6.488V3.256C3.34571 3.30933 2.97771 3.47467 2.70038 3.752C2.43371 4.02933 2.30038 4.40267 2.30038 4.872ZM4.84438 11.592C5.31371 11.5173 5.68171 11.3307 5.94838 11.032C6.21504 10.7227 6.34838 10.3547 6.34838 9.928C6.34838 9.50133 6.21504 9.17067 5.94838 8.936C5.69238 8.69067 5.32438 8.49333 4.84438 8.344V11.592ZM13.1226 9.832C13.2293 10.3653 13.4586 10.7707 13.8106 11.048C14.1626 11.3253 14.6373 11.464 15.2346 11.464C15.992 11.464 16.5466 11.1653 16.8986 10.568C17.2506 9.97067 17.4266 8.952 17.4266 7.512C17.1706 7.87467 16.808 8.15733 16.3386 8.36C15.88 8.552 15.3786 8.648 14.8346 8.648C14.1413 8.648 13.512 8.50933 12.9466 8.232C12.3813 7.944 11.9333 7.52267 11.6026 6.968C11.2826 6.40267 11.1226 5.72 11.1226 4.92C11.1226 3.74667 11.464 2.81333 12.1466 2.12C12.84 1.416 13.7893 1.064 14.9946 1.064C16.4453 1.064 17.4746 1.54933 18.0826 2.52C18.7013 3.48 19.0106 4.95733 19.0106 6.952C19.0106 8.328 18.8933 9.45333 18.6586 10.328C18.4346 11.2027 18.04 11.864 17.4746 12.312C16.9093 12.76 16.1253 12.984 15.1226 12.984C13.9813 12.984 13.1013 12.6853 12.4826 12.088C11.864 11.4907 11.5173 10.7387 11.4426 9.832H13.1226ZM15.1546 7.112C15.7946 7.112 16.296 6.91467 16.6586 6.52C17.032 6.11467 17.2186 5.58133 17.2186 4.92C17.2186 4.184 17.0213 3.61333 16.6266 3.208C16.2426 2.792 15.7146 2.584 15.0426 2.584C14.3706 2.584 13.8373 2.79733 13.4426 3.224C13.0586 3.64 12.8666 4.18933 12.8666 4.872C12.8666 5.52267 13.0533 6.06133 13.4266 6.488C13.8106 6.904 14.3866 7.112 15.1546 7.112ZM28.5269 2.904H23.1669V6.088C23.3909 5.78933 23.7215 5.53867 24.1589 5.336C24.6069 5.13333 25.0815 5.032 25.5829 5.032C26.4789 5.032 27.2042 5.224 27.7589 5.608C28.3242 5.992 28.7242 6.47733 28.9589 7.064C29.2042 7.65067 29.3269 8.26933 29.3269 8.92C29.3269 9.70933 29.1722 10.4133 28.8629 11.032C28.5642 11.64 28.1109 12.12 27.5029 12.472C26.9055 12.824 26.1695 13 25.2949 13C24.1322 13 23.1989 12.712 22.4949 12.136C21.7909 11.56 21.3695 10.7973 21.2309 9.848H23.0069C23.1242 10.3493 23.3855 10.7493 23.7909 11.048C24.1962 11.336 24.7029 11.48 25.3109 11.48C26.0682 11.48 26.6335 11.2507 27.0069 10.792C27.3909 10.3333 27.5829 9.72533 27.5829 8.968C27.5829 8.2 27.3909 7.61333 27.0069 7.208C26.6229 6.792 26.0575 6.584 25.3109 6.584C24.7882 6.584 24.3455 6.71733 23.9829 6.984C23.6309 7.24 23.3749 7.592 23.2149 8.04H21.4869V1.304H28.5269V2.904ZM31.2256 7.016C31.2256 5.17067 31.535 3.73067 32.1536 2.696C32.783 1.65067 33.8603 1.128 35.3856 1.128C36.911 1.128 37.983 1.65067 38.6016 2.696C39.231 3.73067 39.5456 5.17067 39.5456 7.016C39.5456 8.88267 39.231 10.344 38.6016 11.4C37.983 12.4453 36.911 12.968 35.3856 12.968C33.8603 12.968 32.783 12.4453 32.1536 11.4C31.535 10.344 31.2256 8.88267 31.2256 7.016ZM37.7536 7.016C37.7536 6.152 37.695 5.42133 37.5776 4.824C37.471 4.22667 37.247 3.74133 36.9056 3.368C36.5643 2.984 36.0576 2.792 35.3856 2.792C34.7136 2.792 34.207 2.984 33.8656 3.368C33.5243 3.74133 33.295 4.22667 33.1776 4.824C33.071 5.42133 33.0176 6.152 33.0176 7.016C33.0176 7.912 33.071 8.664 33.1776 9.272C33.2843 9.88 33.5083 10.3707 33.8496 10.744C34.2016 11.1173 34.7136 11.304 35.3856 11.304C36.0576 11.304 36.5643 11.1173 36.9056 10.744C37.2576 10.3707 37.487 9.88 37.5936 9.272C37.7003 8.664 37.7536 7.912 37.7536 7.016Z" fill="#999999"/>
</svg>
