<svg width="104" height="40" viewBox="0 0 104 40" fill="none" xmlns="http://www.w3.org/2000/svg">
<circle cx="84" cy="20" r="20" fill="#FA7436"/>
<path d="M92.7071 20.7071C93.0976 20.3166 93.0976 19.6834 92.7071 19.2929L86.3431 12.9289C85.9526 12.5384 85.3195 12.5384 84.9289 12.9289C84.5384 13.3195 84.5384 13.9526 84.9289 14.3431L90.5858 20L84.9289 25.6569C84.5384 26.0474 84.5384 26.6805 84.9289 27.0711C85.3195 27.4616 85.9526 27.4616 86.3431 27.0711L92.7071 20.7071ZM76 21H92V19H76V21Z" fill="white"/>
<circle cx="20" cy="20" r="20" transform="matrix(-1 0 0 1 40 0)" fill="#FEFCFB"/>
<circle cx="20" cy="20" r="19.5" transform="matrix(-1 0 0 1 40 0)" stroke="#999999" stroke-opacity="0.5"/>
<path d="M11.2929 19.2929C10.9024 19.6834 10.9024 20.3166 11.2929 20.7071L17.6569 27.0711C18.0474 27.4616 18.6805 27.4616 19.0711 27.0711C19.4616 26.6805 19.4616 26.0474 19.0711 25.6569L13.4142 20L19.0711 14.3431C19.4616 13.9526 19.4616 13.3195 19.0711 12.9289C18.6805 12.5384 18.0474 12.5384 17.6569 12.9289L11.2929 19.2929ZM28 19L12 19L12 21L28 21L28 19Z" fill="#999999" fill-opacity="0.5"/>
</svg>
